
<svg xmlns="http://www.w3.org/2000/svg" width="264.58301mm" height="264.58301mm" viewBox="0 0 264.58301 264.58301" version="1.1" id="svg842">
  <defs id="defs836"></defs>
  
  
  <g id="layer1">
    <path id="path835" style="opacity:0.993;fill:#b7c450;fill-opacity:1;stroke:none;stroke-width:7.94815;stroke-linecap:round;stroke-linejoin:round;stroke-miterlimit:4;stroke-dasharray:none;stroke-opacity:1" d="M 264.58334,132.29167 A 132.29167,132.29167 0 0 1 132.29167,264.58334 132.29167,132.29167 0 0 1 0,132.29167 132.29167,132.29167 0 0 1 132.29167,0 132.29167,132.29167 0 0 1 264.58334,132.29167 Z"></path>
    <g id="g2766" transform="matrix(0.95687979,0,0,0.95687979,3.800501,10.470862)">
      <path style="fill:#ffffff;stroke:none;stroke-width:0.264583px;stroke-linecap:butt;stroke-linejoin:miter;stroke-opacity:1" d="m 157.61607,179.82217 c 0.98145,0.0231 12.01821,-0.0792 16.77269,0 10.02395,0.16704 17.9063,-6.68365 22.72582,-16.30022 3.09671,-6.17898 38.64806,-89.391371 38.64806,-89.391371 h -19.46577 c -7.5444,0 -17.31954,7.460613 -20.26897,14.126861 -11.74575,26.54752 -34.44308,79.98921 -34.44308,79.98921 0,0 -4.14951,7.27488 -6.98445,8.22 -1.84944,0.61657 -6.05573,0.0482 -6.05573,0.0482 1.9252,2.88192 6.00704,3.22371 9.07143,3.30734 z" id="path2760"></path>
      <path style="fill:#ffffff;stroke:none;stroke-width:0.264583px;stroke-linecap:butt;stroke-linejoin:miter;stroke-opacity:1" d="m 109.74755,77.240891 c -0.90981,-2.131942 -3.90236,-2.973372 -6.1472,-2.973372 H 84.156491 c -9.076711,0 -19.595289,9.977333 -21.982919,16.06958 -7.710034,19.672821 -16.355101,39.196061 -25.123333,58.197941 -10.861298,23.53783 0.719937,31.91766 16.437075,31.97211 19.76669,0.0685 39.533617,0 59.300426,0 14.33672,0 19.80927,-9.57952 24.85607,-20.88043 10.38455,-23.2533 27.27334,-63.848772 30.60284,-71.605516 3.3295,-7.756744 9.02767,-12.331471 14.22176,-10.442983 -1.92195,-3.156225 -6.47145,-3.494889 -10.43308,-3.494889 h -13.56882 c -14.56896,0 -23.4147,11.542232 -27.50445,22.801871 -4.08975,11.259637 -14.18903,34.468117 -22.66493,51.827937 -1.69894,3.47966 -5.43748,10.34563 -11.244885,10.34563 -8.073766,0 -24.221299,0 -24.221299,0 -4.019923,0 -4.303409,-6.28805 -2.342663,-10.75521 C 79.745915,127.2119 88.916828,106.149 98.083861,84.492953 98.97281,82.392916 104.0296,76.224856 109.74755,77.240891 Z" id="path2762"></path>
    </g>
  </g>
</svg>
