<?xml version="1.0" encoding="UTF-8" standalone="no"?>
<svg
   xmlns:dc="http://purl.org/dc/elements/1.1/"
   xmlns:cc="http://creativecommons.org/ns#"
   xmlns:rdf="http://www.w3.org/1999/02/22-rdf-syntax-ns#"
   xmlns:svg="http://www.w3.org/2000/svg"
   xmlns="http://www.w3.org/2000/svg"
   xmlns:sodipodi="http://sodipodi.sourceforge.net/DTD/sodipodi-0.dtd"
   xmlns:inkscape="http://www.inkscape.org/namespaces/inkscape"
   width="1000"
   height="1000"
   viewBox="0 0 264.58333 264.58334"
   version="1.1"
   id="svg8"
   inkscape:version="1.0.1 (3bc2e813f5, 2020-09-07)"
   sodipodi:docname="SinbundangLine_icon.svg">
  <style
     id="style833"></style>
  <defs
     id="defs2" />
  <sodipodi:namedview
     id="base"
     pagecolor="#ffffff"
     bordercolor="#666666"
     borderopacity="1.0"
     inkscape:pageopacity="0.0"
     inkscape:pageshadow="2"
     inkscape:zoom="0.49497475"
     inkscape:cx="452.56012"
     inkscape:cy="481.51004"
     inkscape:document-units="mm"
     inkscape:current-layer="layer1"
     inkscape:document-rotation="0"
     showgrid="false"
     units="px"
     inkscape:snap-bbox="true"
     inkscape:bbox-paths="true"
     inkscape:window-width="1920"
     inkscape:window-height="1017"
     inkscape:window-x="-8"
     inkscape:window-y="-8"
     inkscape:window-maximized="1"
     inkscape:snap-object-midpoints="true" />
  <metadata
     id="metadata5">
    <rdf:RDF>
      <cc:Work
         rdf:about="">
        <dc:format>image/svg+xml</dc:format>
        <dc:type
           rdf:resource="http://purl.org/dc/dcmitype/StillImage" />
        <dc:title></dc:title>
      </cc:Work>
    </rdf:RDF>
  </metadata>
  <g
     inkscape:label="레이어 1"
     inkscape:groupmode="layer"
     id="layer1">
    <circle
       style="opacity:0.993;fill:#d4003b;stroke:none;stroke-width:0.353792;stroke-linecap:round;stroke-linejoin:round;paint-order:markers fill stroke;fill-opacity:1"
       id="path835"
       cx="132.29166"
       cy="132.29167"
       r="132.11478" />
    <g
       aria-label="신분당"
       id="text839"
       style="font-style:normal;font-variant:normal;font-weight:900;font-stretch:normal;font-size:88.72px;line-height:1.25;font-family:'Noto Sans CJK KR';-inkscape-font-specification:'Noto Sans CJK KR Heavy';letter-spacing:0px;word-spacing:0px;fill:#ffffff;fill-opacity:1;stroke:none;stroke-width:0.147866">
      <path
         d="m 46.044464,93.62325 v 10.82384 q 0,3.9924 1.419521,7.80736 1.50824,3.81496 4.08112,7.0976 2.57288,3.28264 6.12168,5.85552 3.5488,2.57288 7.80736,3.9924 l -6.38784,7.5412 q -5.7668,-2.92776 -10.82384,-7.0976 -5.057041,-4.25856 -7.541201,-8.78328 -0.79848,2.30672 -2.57288,4.79088 -1.7744,2.39544 -4.25856,4.79088 -2.39544,2.30672 -5.3232,4.52472 -2.92776,2.12928 -5.94424,3.81496 l -7.89608,-6.74272 q 9.7592,-4.79088 15.17112,-11.79976 5.41192,-7.0976 5.50064,-15.61472 V 93.62325 Z m 37.439841,-1.68568 v 58.37776 h -9.93664 V 91.93757 Z m -50.747841,77.89616 q -1.41952,0 -1.95184,-0.53232 -0.4436,-0.53232 -0.4436,-1.95184 v -23.15592 h 10.11408 v 17.12296 h 44.892321 v 8.51712 z"
         style="font-style:normal;font-variant:normal;font-weight:bold;font-stretch:normal;font-size:88.72px;font-family:'KoPubDotum Bold';-inkscape-font-specification:'KoPubDotum Bold,  Bold';text-align:center;text-anchor:middle;fill:#ffffff;fill-opacity:1;stroke-width:0.147866"
         id="path2047" />
      <path
         d="m 147.62884,117.04533 v -7.89608 h -35.57672 v 7.89608 z m -45.51336,5.7668 V 92.55861 h 9.93664 v 8.4284 h 35.57672 v -8.4284 h 10.02536 v 30.25352 q 0,1.41952 -0.62104,1.95184 -0.53232,0.53232 -1.86312,0.53232 h -50.65912 q -1.41952,0 -1.95184,-0.53232 -0.4436,-0.53232 -0.4436,-1.95184 z m 64.41072,17.38912 h -30.25352 v 15.34856 H 125.98116 V 140.20125 H 93.332199 v -8.4284 H 166.5262 Z m -61.6604,29.63248 q -1.41952,0 -1.95184,-0.53232 -0.4436,-0.53232 -0.4436,-1.95184 v -21.55896 h 10.11408 v 15.526 h 47.4652 v 8.51712 z"
         style="font-style:normal;font-variant:normal;font-weight:bold;font-stretch:normal;font-size:88.72px;font-family:'KoPubDotum Bold';-inkscape-font-specification:'KoPubDotum Bold,  Bold';text-align:center;text-anchor:middle;fill:#ffffff;fill-opacity:1;stroke-width:0.147866"
         id="path2049" />
      <path
         d="m 208.7569,139.31405 q 6.03296,0 11.17872,1.15336 5.14576,1.15336 8.96072,3.28264 3.72624,2.12928 5.85552,5.23448 2.12928,3.1052 2.12928,7.0976 0,4.08112 -2.12928,7.18632 -2.12928,3.1052 -5.85552,5.23448 -3.81496,2.12928 -8.96072,3.19392 -5.14576,1.06464 -11.26744,1.06464 -6.12168,0 -11.26744,-1.06464 -5.05705,-1.06464 -8.78329,-3.19392 -3.72624,-2.12928 -5.85552,-5.23448 -2.04056,-3.1052 -2.04056,-7.18632 0,-3.90368 2.12928,-7.00888 2.12928,-3.1052 5.94424,-5.3232 3.81496,-2.12928 8.87201,-3.28264 5.14576,-1.15336 11.09,-1.15336 z m 0,7.89608 q -7.71864,0 -12.50952,2.30672 -4.79089,2.30672 -4.79089,6.38784 0,4.16984 4.79089,6.56528 4.8796,2.48416 12.50952,2.48416 7.80736,0 12.50952,-2.48416 4.79088,-2.48416 4.79088,-6.56528 0,-4.16984 -4.70216,-6.38784 -4.70216,-2.30672 -12.59824,-2.30672 z m -30.87457,-16.23576 q -1.41952,0 -1.95184,-0.53232 -0.4436,-0.53232 -0.4436,-1.95184 V 97.61565 q 0,-1.3308 0.53232,-1.86312 0.53232,-0.62104 1.95184,-0.62104 h 35.31057 v 8.4284 h -27.85809 v 18.89736 l 11.00129,-0.0887 q 2.48416,0 5.94424,-0.17744 3.46008,-0.26616 7.0976,-0.62104 3.72624,-0.35488 7.0976,-0.79848 3.37136,-0.53232 5.7668,-1.06464 v 8.16224 q -1.95184,0.4436 -5.23448,0.97592 -3.28264,0.53232 -7.27504,0.97592 -3.9924,0.4436 -8.33968,0.79848 -4.34728,0.26616 -8.42841,0.26616 -0.97592,0 -3.46008,0.0887 -2.39544,0 -4.96832,0 -2.57288,0 -4.61344,0 -2.04056,0 -2.12928,0 z m 47.28777,7.71864 V 91.93757 h 10.02536 v 15.25984 h 10.38024 v 8.4284 h -10.38024 v 23.0672 z"
         style="font-style:normal;font-variant:normal;font-weight:bold;font-stretch:normal;font-size:88.72px;font-family:'KoPubDotum Bold';-inkscape-font-specification:'KoPubDotum Bold,  Bold';text-align:center;text-anchor:middle;fill:#ffffff;fill-opacity:1;stroke-width:0.147866"
         id="path2051" />
    </g>
  </g>
</svg>
