<?xml version="1.0" encoding="UTF-8" standalone="no"?>
<svg
   xmlns:dc="http://purl.org/dc/elements/1.1/"
   xmlns:cc="http://creativecommons.org/ns#"
   xmlns:rdf="http://www.w3.org/1999/02/22-rdf-syntax-ns#"
   xmlns:svg="http://www.w3.org/2000/svg"
   xmlns="http://www.w3.org/2000/svg"
   xmlns:sodipodi="http://sodipodi.sourceforge.net/DTD/sodipodi-0.dtd"
   xmlns:inkscape="http://www.inkscape.org/namespaces/inkscape"
   width="1000"
   height="1000"
   viewBox="0 0 264.58333 264.58334"
   version="1.1"
   id="svg8"
   inkscape:version="1.0.1 (3bc2e813f5, 2020-09-07)"
   sodipodi:docname="Incheonmetro2_icon.svg">
  <style
     id="style833"></style>
  <defs
     id="defs2" />
  <sodipodi:namedview
     id="base"
     pagecolor="#ffffff"
     bordercolor="#666666"
     borderopacity="1.0"
     inkscape:pageopacity="0.0"
     inkscape:pageshadow="2"
     inkscape:zoom="0.49497475"
     inkscape:cx="442.69724"
     inkscape:cy="515.71826"
     inkscape:document-units="mm"
     inkscape:current-layer="layer1"
     inkscape:document-rotation="0"
     showgrid="false"
     units="px"
     inkscape:snap-bbox="true"
     inkscape:bbox-paths="true"
     inkscape:window-width="1920"
     inkscape:window-height="1017"
     inkscape:window-x="-8"
     inkscape:window-y="-8"
     inkscape:window-maximized="1"
     inkscape:snap-object-midpoints="true" />
  <metadata
     id="metadata5">
    <rdf:RDF>
      <cc:Work
         rdf:about="">
        <dc:format>image/svg+xml</dc:format>
        <dc:type
           rdf:resource="http://purl.org/dc/dcmitype/StillImage" />
        <dc:title />
      </cc:Work>
    </rdf:RDF>
  </metadata>
  <g
     inkscape:label="레이어 1"
     inkscape:groupmode="layer"
     id="layer1">
    <circle
       style="opacity:0.993;fill:#f5a251;stroke:none;stroke-width:0.353792;stroke-linecap:round;stroke-linejoin:round;paint-order:markers fill stroke;fill-opacity:1"
       id="path835"
       cx="132.29166"
       cy="132.29167"
       r="132.11478" />
    <g
       aria-label="인천2"
       id="text839"
       style="font-style:normal;font-variant:normal;font-weight:900;font-stretch:normal;font-size:95.3383px;line-height:1.25;font-family:'Noto Sans CJK KR';-inkscape-font-specification:'Noto Sans CJK KR Heavy';letter-spacing:0px;word-spacing:0px;fill:#ffffff;fill-opacity:1;stroke:none;stroke-width:0.158896"
       transform="translate(1.6886475,1.5834733)">
      <path
         d="m 48.230742,135.66579 q -5.338945,0 -9.629169,-1.81143 -4.194885,-1.81142 -7.150372,-4.95759 -2.955488,-3.05082 -4.480901,-7.15037 -1.525412,-4.19489 -1.525412,-8.86646 0,-4.67158 1.525412,-8.77113 1.525413,-4.09954 4.480901,-7.245709 2.955487,-3.050825 7.150372,-4.862253 4.194886,-1.811428 9.629169,-1.811428 5.338945,0 9.53383,1.811428 4.290224,1.811428 7.150373,4.862253 2.955487,3.146169 4.4809,7.245709 1.620751,4.09955 1.620751,8.77113 0,4.67157 -1.620751,8.86646 -1.525413,4.09955 -4.4809,7.15037 -2.955488,3.14617 -7.245711,4.95759 -4.194885,1.81143 -9.438492,1.81143 z m 0,-36.323893 q -5.815637,0 -8.961801,3.908873 -3.050825,3.90887 -3.050825,9.62917 0,5.62496 3.146164,9.62916 3.146164,4.00421 8.866462,4.00421 5.720298,0 8.866462,-4.00421 3.146164,-4.0042 3.146164,-9.62916 0,-5.7203 -3.146164,-9.62917 -3.146164,-3.908873 -8.866462,-3.908873 z M 94.94651,89.045361 V 151.96864 H 84.26862 V 89.045361 Z M 40.126986,172.75239 q -1.525413,0 -2.097442,-0.57203 -0.476692,-0.57203 -0.476692,-2.09744 V 144.1509 h 10.868566 v 19.44901 h 48.527197 v 9.15248 z"
         style="font-style:normal;font-variant:normal;font-weight:bold;font-stretch:normal;font-size:95.3383px;font-family:'KoPubDotum Bold';-inkscape-font-specification:'KoPubDotum Bold,  Bold';text-align:center;text-anchor:middle;fill:#ffffff;fill-opacity:1;stroke-width:0.158896"
         id="path7445" />
      <path
         d="m 111.44001,102.29738 h 44.04629 v 8.58045 h -15.82615 q 0.28601,3.90887 2.19278,7.53173 2.0021,3.52751 5.05293,6.57834 2.95548,2.95549 6.67368,5.14827 3.71819,2.19278 7.62706,3.2415 l -6.67368,8.00842 q -3.05082,-1.14406 -6.00631,-3.05083 -2.95549,-1.90676 -5.62496,-4.09954 -2.66947,-2.19278 -4.95759,-4.67158 -2.19278,-2.4788 -3.62286,-4.86225 -1.33474,2.38345 -3.62285,5.14826 -2.19279,2.66948 -4.9576,5.24361 -2.86015,2.66947 -6.19699,4.95759 -3.2415,2.28812 -6.67368,3.7182 l -7.7224,-7.72241 q 4.00421,-1.43007 8.00842,-3.90887 4.00421,-2.47879 7.24571,-5.72029 3.14616,-3.33685 5.14827,-7.24572 2.09744,-3.90887 2.28812,-8.29443 h -16.39819 z m 9.15248,-13.633373 h 26.12269 v 8.199094 h -26.12269 z m 59.20508,0.381354 V 152.25466 H 169.11968 V 123.55783 H 154.7236 v -9.05714 h 14.39608 V 89.045361 Z m -54.91486,83.707029 q -1.52541,0 -2.09744,-0.57203 -0.4767,-0.57203 -0.4767,-2.09744 v -23.6439 h 10.86857 v 17.16089 h 48.5272 v 9.15248 z"
         style="font-style:normal;font-variant:normal;font-weight:bold;font-stretch:normal;font-size:95.3383px;font-family:'KoPubDotum Bold';-inkscape-font-specification:'KoPubDotum Bold,  Bold';text-align:center;text-anchor:middle;fill:#ffffff;fill-opacity:1;stroke-width:0.158896"
         id="path7447" />
      <path
         d="m 190.09408,162.0745 v -6.19699 q 3.43218,-3.2415 8.9618,-8.86646 5.62496,-5.62496 10.9639,-11.82195 5.33895,-6.29233 9.24782,-12.29864 3.90887,-6.10165 3.90887,-10.39188 0,-5.62496 -2.95549,-8.19909 -2.95548,-2.66947 -7.81774,-2.66947 -4.86225,0 -7.81774,3.43218 -2.86015,3.43217 -2.86015,10.01052 h -11.05924 q 0,-5.14827 1.62075,-9.34316 1.71609,-4.19488 4.67158,-7.055031 2.95548,-2.955487 6.86436,-4.4809 4.0042,-1.620751 8.58044,-1.620751 4.4809,0 8.48511,1.334736 4.00421,1.239398 6.9597,3.718194 2.95548,2.478792 4.67157,6.101652 1.71609,3.52752 1.71609,8.10375 0,6.19699 -3.71819,12.77534 -3.62286,6.483 -8.67579,12.39398 -4.95759,5.91097 -10.10586,10.86856 -5.14826,4.86226 -8.00841,7.72241 h 32.03367 v 9.05713 h -43.09292 q -1.52541,0 -2.09744,-0.57203 -0.47669,-0.47669 -0.47669,-2.0021 z"
         style="font-style:normal;font-variant:normal;font-weight:bold;font-stretch:normal;font-size:95.3383px;font-family:'KoPubDotum Bold';-inkscape-font-specification:'KoPubDotum Bold,  Bold';text-align:center;text-anchor:middle;fill:#ffffff;fill-opacity:1;stroke-width:0.158896"
         id="path7449" />
    </g>
  </g>
</svg>
