<?xml version="1.0" encoding="UTF-8" standalone="no"?>
<svg
   xmlns:dc="http://purl.org/dc/elements/1.1/"
   xmlns:cc="http://creativecommons.org/ns#"
   xmlns:rdf="http://www.w3.org/1999/02/22-rdf-syntax-ns#"
   xmlns:svg="http://www.w3.org/2000/svg"
   xmlns="http://www.w3.org/2000/svg"
   xmlns:sodipodi="http://sodipodi.sourceforge.net/DTD/sodipodi-0.dtd"
   xmlns:inkscape="http://www.inkscape.org/namespaces/inkscape"
   width="1000"
   height="1000"
   viewBox="0 0 264.58333 264.58334"
   version="1.1"
   id="svg8"
   inkscape:version="1.0.1 (3bc2e813f5, 2020-09-07)"
   sodipodi:docname="GJLine_icon.svg">
  <style
     id="style833"></style>
  <defs
     id="defs2" />
  <sodipodi:namedview
     id="base"
     pagecolor="#ffffff"
     bordercolor="#666666"
     borderopacity="1.0"
     inkscape:pageopacity="0.0"
     inkscape:pageshadow="2"
     inkscape:zoom="0.7"
     inkscape:cx="474.0445"
     inkscape:cy="447.64191"
     inkscape:document-units="mm"
     inkscape:current-layer="layer1"
     inkscape:document-rotation="0"
     showgrid="false"
     units="px"
     inkscape:snap-bbox="true"
     inkscape:bbox-paths="true"
     inkscape:window-width="1920"
     inkscape:window-height="1017"
     inkscape:window-x="-8"
     inkscape:window-y="-8"
     inkscape:window-maximized="1"
     inkscape:snap-object-midpoints="true" />
  <metadata
     id="metadata5">
    <rdf:RDF>
      <cc:Work
         rdf:about="">
        <dc:format>image/svg+xml</dc:format>
        <dc:type
           rdf:resource="http://purl.org/dc/dcmitype/StillImage" />
        <dc:title></dc:title>
      </cc:Work>
    </rdf:RDF>
  </metadata>
  <g
     inkscape:label="레이어 1"
     inkscape:groupmode="layer"
     id="layer1">
    <circle
       style="opacity:0.993;fill:#77c4a3;stroke:none;stroke-width:0.353792;stroke-linecap:round;stroke-linejoin:round;paint-order:markers fill stroke;fill-opacity:1"
       id="path835"
       cx="132.29166"
       cy="132.29167"
       r="132.11478" />
    <g
       aria-label="경의
중앙"
       id="text839"
       style="font-style:normal;font-variant:normal;font-weight:900;font-stretch:normal;font-size:94.0912px;line-height:0.9;font-family:'Noto Sans CJK KR';-inkscape-font-specification:'Noto Sans CJK KR Heavy';letter-spacing:0px;word-spacing:0px;fill:#ffffff;fill-opacity:1;stroke:none;stroke-width:0.156818">
      <path
         d="m 94.655193,93.573144 q 6.398197,0 11.855487,1.223185 5.55139,1.223186 9.59731,3.481375 3.95183,2.258186 6.21002,5.551376 2.35228,3.2932 2.35228,7.5273 0,4.3282 -2.35228,7.62139 -2.25819,3.29319 -6.21002,5.55138 -4.04592,2.25819 -9.59731,3.38728 -5.45729,1.1291 -11.949578,1.1291 -6.492293,0 -11.949583,-1.1291 -5.45729,-1.12909 -9.40912,-3.38728 -4.045922,-2.25819 -6.304111,-5.55138 -2.164097,-3.29319 -2.164097,-7.62139 0,-4.14001 2.258189,-7.4332 2.35228,-3.2932 6.398201,-5.645476 4.045922,-2.258189 9.503212,-3.481375 5.457289,-1.223185 11.7614,-1.223185 z m 0,8.374116 q -8.185935,0 -13.360951,2.44637 -5.175016,2.44637 -5.175016,6.77457 0,4.42229 5.175016,6.96275 5.269108,2.63455 13.360951,2.63455 8.280027,0 13.360947,-2.63455 5.17502,-2.63456 5.17502,-6.96275 0,-4.42229 -5.08093,-6.77457 -5.08092,-2.44637 -13.455037,-2.44637 z m 0.282274,-55.231535 q 1.411368,0 1.975915,0.658639 0.658638,0.564547 0.658638,1.975915 Q 95.97247,64.028506 86.939714,75.319451 77.906959,86.516304 59.93554,92.444049 L 53.349155,84.728571 Q 67.180562,80.870832 75.178314,73.437627 83.270158,65.91033 85.622438,55.748481 H 58.335989 V 46.715725 Z M 113.00298,93.384961 V 81.811744 H 97.007473 V 73.061262 H 113.09707 V 63.181686 H 98.795206 V 54.431204 H 113.00298 V 43.234351 h 10.6323 v 50.15061 z"
         style="font-style:normal;font-variant:normal;font-weight:bold;font-stretch:normal;font-size:94.0912px;font-family:'KoPubDotum Bold';-inkscape-font-specification:'KoPubDotum Bold, Bold';text-align:center;text-anchor:middle;fill:#ffffff;fill-opacity:1;stroke-width:0.156818"
         id="path1450" />
      <path
         d="m 162.96538,88.962675 q -5.08093,0 -9.22094,-1.599551 -4.14001,-1.59955 -7.15093,-4.516377 -2.91683,-2.916827 -4.51638,-6.868658 -1.59955,-3.95183 -1.59955,-8.65639 0,-4.516378 1.59955,-8.468209 1.59955,-3.95183 4.51638,-6.868657 3.01092,-2.916828 7.15093,-4.516378 4.14001,-1.693642 9.22094,-1.693642 4.98683,0 9.12684,1.693642 4.14002,1.59955 7.15094,4.516378 2.91682,2.916827 4.51637,6.868657 1.69365,3.951831 1.69365,8.468209 0,4.70456 -1.69365,8.65639 -1.59955,3.951831 -4.51637,6.868658 -3.01092,2.916827 -7.15094,4.516377 -4.14001,1.599551 -9.12684,1.599551 z m 0,-34.249198 q -5.64547,0 -8.75048,3.575466 -3.01092,3.575466 -3.01092,9.032756 0,5.363198 3.01092,9.126846 3.10501,3.669557 8.75048,3.669557 5.64547,0 8.65639,-3.669557 3.10501,-3.763648 3.10501,-9.126846 0,-5.45729 -3.10501,-9.032756 -3.01092,-3.575466 -8.65639,-3.575466 z m -26.34554,46.481053 25.59281,-0.28227 q 2.1641,0 5.92774,-0.18818 3.85774,-0.28228 8.28003,-0.65864 4.42229,-0.376368 8.93866,-0.940915 4.51638,-0.564547 8.09185,-1.223186 v 8.750481 q -8.75048,1.97592 -20.98234,2.91683 -12.23186,0.84682 -26.15735,0.84682 h -9.6914 z m 69.62749,-57.866088 v 84.211628 h -10.6323 V 43.328442 Z"
         style="font-style:normal;font-variant:normal;font-weight:bold;font-stretch:normal;font-size:94.0912px;font-family:'KoPubDotum Bold';-inkscape-font-specification:'KoPubDotum Bold, Bold';text-align:center;text-anchor:middle;fill:#ffffff;fill-opacity:1;stroke-width:0.156818"
         id="path1452" />
      <path
         d="m 95.784287,188.98162 q 12.608223,0.84682 19.194603,5.17502 6.68048,4.2341 6.68048,10.91458 0,7.4332 -7.99775,11.85549 -7.99776,4.42228 -23.240531,4.42228 -15.336866,0 -23.334618,-4.42228 -7.903661,-4.42229 -7.903661,-11.85549 0,-6.68048 6.492293,-10.91458 6.586384,-4.3282 19.006423,-5.17502 v -8.28003 H 51.655514 v -8.84457 h 77.625246 v 8.84457 H 95.784287 Z m -5.363198,7.90366 q -8.938664,0 -14.11368,2.07001 -5.175016,2.07 -5.175016,6.02183 0,4.23411 5.175016,6.11593 5.175016,1.97592 14.11368,1.97592 8.844573,0 14.019591,-1.97592 5.26911,-1.88182 5.26911,-6.11593 0,-3.95183 -5.26911,-6.02183 -5.175018,-2.07001 -14.019591,-2.07001 z M 60.594178,137.70192 H 120.248 v 8.93866 H 96.631108 q 0.940912,3.29319 3.763652,5.55138 2.82273,2.25819 6.86865,3.76365 3.95183,1.59955 8.65639,2.54046 4.79866,0.94091 9.59731,1.50546 l -6.3982,7.71548 q -4.14002,-0.65864 -8.46821,-1.59955 -4.23411,-0.94091 -8.09185,-2.44637 -3.951827,-1.41137 -7.150927,-3.38729 -3.199101,-2.07 -5.175017,-4.79865 -2.258188,2.72865 -5.457289,4.70456 -3.10501,1.97592 -6.962749,3.48138 -3.763648,1.50546 -7.997752,2.54046 -4.140013,0.94091 -8.280026,1.50546 l -6.492293,-7.62139 q 5.645472,-0.94091 10.538215,-2.07001 4.986833,-1.12909 8.844573,-2.63455 3.763648,-1.59955 6.30411,-3.66956 2.540463,-2.16409 3.387283,-5.08092 h -23.5228 z"
         style="font-style:normal;font-variant:normal;font-weight:bold;font-stretch:normal;font-size:94.0912px;font-family:'KoPubDotum Bold';-inkscape-font-specification:'KoPubDotum Bold, Bold';text-align:center;text-anchor:middle;fill:#ffffff;fill-opacity:1;stroke-width:0.156818"
         id="path1454" />
      <path
         d="m 157.97854,178.91386 q -5.08092,0 -9.22093,-1.59955 -4.14002,-1.59955 -7.15093,-4.42229 -2.91683,-2.82273 -4.51638,-6.68047 -1.59955,-3.95183 -1.59955,-8.5623 0,-4.51638 1.59955,-8.37412 1.59955,-3.85774 4.51638,-6.68047 3.01091,-2.82274 7.15093,-4.42229 4.14001,-1.69364 9.22093,-1.69364 4.98684,0 9.12685,1.69364 4.14001,1.59955 7.15093,4.42229 2.91683,2.82273 4.51638,6.68047 1.69364,3.85774 1.69364,8.37412 0,4.61047 -1.69364,8.5623 -1.59955,3.85774 -4.51638,6.68047 -3.01092,2.82274 -7.15093,4.42229 -4.14001,1.59955 -9.12685,1.59955 z m 0,-33.40238 q -5.64547,0 -8.75048,3.48138 -3.01092,3.48137 -3.01092,8.75048 0,5.17502 3.01092,8.75048 3.10501,3.48138 8.75048,3.48138 5.64548,0 8.65639,-3.48138 3.10501,-3.57546 3.10501,-8.75048 0,-5.26911 -3.10501,-8.75048 -3.01091,-3.48138 -8.65639,-3.48138 z m 16.84233,40.27104 q 6.3982,0 11.85549,1.22318 5.45729,1.22319 9.50321,3.48138 3.95183,2.25819 6.21002,5.55138 2.25819,3.29319 2.25819,7.5273 0,4.32819 -2.25819,7.62138 -2.25819,3.2932 -6.21002,5.55138 -4.04592,2.25819 -9.50321,3.38729 -5.45729,1.12909 -11.94958,1.12909 -6.49229,0 -11.94958,-1.12909 -5.3632,-1.1291 -9.31503,-3.38729 -3.95183,-2.25818 -6.21002,-5.55138 -2.1641,-3.29319 -2.1641,-7.62138 0,-4.14002 2.25819,-7.43321 2.25819,-3.29319 6.30411,-5.64547 4.04592,-2.25819 9.40912,-3.48138 5.45729,-1.22318 11.7614,-1.22318 z m 0,8.37412 q -8.18594,0 -13.26686,2.44637 -5.08092,2.44637 -5.08092,6.77456 0,4.42229 5.08092,6.96275 5.17502,2.63456 13.26686,2.63456 8.28003,0 13.26686,-2.63456 5.08092,-2.63455 5.08092,-6.96275 0,-4.42228 -4.98683,-6.77456 -4.98683,-2.44637 -13.36095,-2.44637 z m 27.28645,-58.61882 v 17.97142 h 10.82049 v 8.93866 h -10.82049 v 23.80508 h -10.7264 v -50.71516 z"
         style="font-style:normal;font-variant:normal;font-weight:bold;font-stretch:normal;font-size:94.0912px;font-family:'KoPubDotum Bold';-inkscape-font-specification:'KoPubDotum Bold, Bold';text-align:center;text-anchor:middle;fill:#ffffff;fill-opacity:1;stroke-width:0.156818"
         id="path1456" />
    </g>
  </g>
</svg>
